<svg width="1462" height="568" viewBox="0 0 1462 568" fill="none" xmlns="http://www.w3.org/2000/svg">
<path d="M567.405 18.7335V140.676C567.405 150.677 559.299 158.783 549.297 158.783C545.966 158.783 542.764 157.863 540.013 156.207C537.253 154.56 534.934 152.168 533.342 149.242C533.324 149.196 533.296 149.15 533.278 149.113C533.195 148.966 533.112 148.819 533.029 148.671C532.726 148.101 532.413 147.54 532.1 146.978C531.686 146.224 531.263 145.479 530.84 144.724C530.416 143.979 529.993 143.234 529.561 142.488C529.137 141.743 528.705 141.007 528.263 140.262C527.766 139.424 527.27 138.578 526.763 137.75C526.377 137.106 525.981 136.462 525.595 135.827C524.896 134.695 524.196 133.572 523.479 132.45C523.212 132.027 522.945 131.594 522.669 131.171C522.522 130.941 522.365 130.702 522.218 130.472C521.786 129.809 521.353 129.137 520.912 128.475C520.544 127.904 520.166 127.343 519.78 126.773C519.596 126.488 519.403 126.202 519.209 125.917C519.145 125.816 519.071 125.715 518.998 125.604C518.878 125.429 518.749 125.245 518.63 125.061C518.317 124.592 517.995 124.123 517.673 123.654C517.13 122.862 516.587 122.08 516.035 121.298C515.437 120.442 514.83 119.587 514.222 118.74C514.176 118.685 514.14 118.63 514.103 118.584C514.075 118.547 514.057 118.519 514.038 118.492C514.002 118.437 513.965 118.381 513.928 118.335C513.026 117.084 512.115 115.842 511.186 114.609C510.892 114.213 510.597 113.818 510.303 113.431C510.082 113.146 509.861 112.852 509.649 112.557C509.539 112.419 509.429 112.272 509.318 112.134C509.281 112.088 509.245 112.033 509.208 111.977C508.601 111.195 507.993 110.413 507.386 109.631C506.797 108.867 506.199 108.113 505.592 107.358C504.994 106.604 504.386 105.849 503.77 105.104C502.555 103.614 501.322 102.132 500.071 100.66C499.445 99.924 498.82 99.1879 498.185 98.461C496.924 96.998 495.645 95.5534 494.348 94.1273C493.548 93.2348 492.738 92.3423 491.91 91.459C491.1 90.5756 490.272 89.6923 489.435 88.8182C488.708 88.0453 487.972 87.2816 487.226 86.518C487.171 86.4536 487.107 86.3983 487.052 86.3339L486.969 86.2511C486.969 86.2511 486.904 86.1867 486.886 86.1591C486.84 86.1131 486.794 86.0671 486.748 86.0303C486.711 85.9935 486.683 85.9567 486.647 85.9291C486.499 85.7727 486.343 85.6162 486.196 85.4598C484.991 84.2453 483.785 83.0399 482.571 81.8346C482.414 81.6874 482.258 81.531 482.101 81.3837C482.074 81.3469 482.037 81.3193 482 81.2825C481.963 81.2365 481.917 81.1905 481.871 81.1445C481.844 81.1261 481.807 81.0985 481.779 81.0617C481.752 81.0341 481.724 81.0065 481.696 80.9789C481.632 80.9237 481.577 80.8593 481.512 80.8041C480.749 80.0588 479.985 79.3227 479.212 78.5958C478.338 77.7585 477.455 76.9304 476.571 76.1207C475.688 75.2926 474.796 74.4829 473.903 73.6824C472.477 72.3851 471.032 71.1061 469.569 69.8456C468.843 69.2107 468.106 68.585 467.37 67.9594C465.898 66.708 464.417 65.4751 462.926 64.2605C462.181 63.644 461.426 63.0368 460.672 62.4387C459.917 61.8314 459.163 61.2334 458.399 60.6445C457.617 60.0372 456.835 59.4299 456.053 58.8227C455.998 58.7859 455.943 58.7491 455.897 58.7122C455.759 58.6018 455.611 58.4914 455.473 58.381C455.179 58.1694 454.885 57.9486 454.599 57.7277C454.213 57.4333 453.817 57.1389 453.422 56.8444C452.189 55.9151 450.946 55.0042 449.695 54.1025C449.649 54.0657 449.594 54.0289 449.539 53.9921C449.511 53.9737 449.483 53.9553 449.447 53.9277C449.401 53.8909 449.345 53.8541 449.29 53.8081C448.444 53.2008 447.588 52.5935 446.732 51.9955C445.95 51.4434 445.168 50.9005 444.377 50.3577C443.908 50.0356 443.438 49.7136 442.969 49.4007C442.794 49.2719 442.61 49.1523 442.426 49.0327C442.316 48.9591 442.215 48.8855 442.113 48.8211C442.049 48.7751 441.985 48.7291 441.911 48.6831C441.69 48.5358 441.479 48.3978 441.258 48.2506C440.687 47.8642 440.126 47.4869 439.555 47.1189C438.893 46.6772 438.221 46.2448 437.559 45.8123C437.329 45.6651 437.09 45.5087 436.86 45.3615C436.436 45.0854 436.004 44.8186 435.581 44.5518C434.458 43.8341 433.336 43.1348 432.204 42.4355C431.569 42.0491 430.925 41.6534 430.281 41.267C429.453 40.7609 428.606 40.2641 427.769 39.7672C427.024 39.3255 426.287 38.8931 425.542 38.4698C424.797 38.0374 424.052 37.6141 423.306 37.1909C422.552 36.7676 421.807 36.3444 421.052 35.9303C420.491 35.6175 419.93 35.3047 419.359 35.001C419.212 34.9182 419.065 34.8354 418.917 34.7526C418.881 34.7342 418.835 34.7066 418.789 34.6882C412.928 31.5046 409.247 25.4043 409.247 18.7335C409.247 13.7281 411.271 9.20115 414.547 5.92556C417.832 2.64997 422.359 0.625732 427.355 0.625732H549.297C559.299 0.625732 567.405 8.7319 567.405 18.7335Z" fill="#21A2D4"/>
<path d="M158.702 549.379C158.702 559.38 150.595 567.487 140.594 567.487H18.6517C8.65011 567.487 0.543945 559.38 0.543945 549.379V427.437C0.543945 417.435 8.65011 409.329 18.6517 409.329C21.9825 409.329 25.1845 410.249 27.9356 411.905C30.6959 413.552 33.0146 415.945 34.6064 418.871C34.634 418.917 34.6524 418.953 34.6708 418.999C35.0665 419.717 35.4529 420.425 35.8485 421.134C36.2626 421.888 36.6859 422.634 37.1091 423.388C37.5324 424.134 37.9556 424.879 38.3881 425.624C38.8113 426.369 39.2438 427.106 39.6854 427.851C41.636 431.154 43.6511 434.42 45.7305 437.641C46.163 438.303 46.5954 438.975 47.0371 439.637C47.4051 440.208 47.7824 440.769 48.1688 441.34C48.5461 441.91 48.9233 442.481 49.319 443.051C49.6318 443.52 49.9538 443.99 50.2759 444.459C50.8187 445.25 51.3616 446.032 51.9137 446.814C54.7016 450.78 57.5815 454.672 60.5627 458.481C61.1516 459.245 61.7496 459.999 62.3569 460.754C62.955 461.508 63.5623 462.263 64.1787 463.008C65.3933 464.499 66.6262 465.98 67.8776 467.452C68.494 468.188 69.1289 468.924 69.7638 469.651C71.0243 471.114 72.3033 472.559 73.6006 473.985C80.0598 481.144 86.887 487.971 94.0455 494.43C95.4716 495.727 96.9162 497.006 98.3792 498.267C99.1061 498.902 99.8422 499.537 100.578 500.153C102.05 501.404 103.532 502.637 105.022 503.852C105.768 504.468 106.522 505.076 107.277 505.674C108.031 506.281 108.786 506.879 109.549 507.468C113.359 510.449 117.251 513.329 121.216 516.117C121.998 516.669 122.781 517.212 123.572 517.755C124.041 518.077 124.51 518.399 124.98 518.712C125.55 519.107 126.121 519.485 126.691 519.862C127.261 520.248 127.823 520.625 128.393 520.993C129.056 521.435 129.727 521.868 130.39 522.3C133.61 524.379 136.877 526.395 140.18 528.345C140.925 528.787 141.661 529.219 142.406 529.643C143.152 530.075 143.897 530.498 144.642 530.921C145.397 531.345 146.142 531.768 146.897 532.182C147.605 532.578 148.314 532.964 149.031 533.36C149.077 533.378 149.114 533.397 149.16 533.424C155.021 536.608 158.702 542.708 158.702 549.379Z" fill="#0A4266"/>
<path d="M283.976 303.02V547.852C283.976 558.81 274.71 567.551 263.77 566.779C230.655 564.441 199.114 556.418 170.112 543.684C163.202 540.647 158.703 533.839 158.703 526.285V428.293C158.703 417.822 150.21 409.329 139.739 409.329H41.7477C34.1936 409.329 27.3848 404.83 24.3484 397.92C11.6141 368.918 3.59072 337.377 1.25365 304.262C0.480755 293.322 9.2218 284.057 20.1803 284.057H265.012C275.483 284.057 283.976 292.549 283.976 303.02Z" fill="#21A2D4"/>
<path d="M548.267 284.056H302.469C292.256 284.056 283.975 275.775 283.975 265.562V19.7641C283.975 9.07246 293.019 0.570643 303.683 1.29753C337.083 3.5978 368.892 11.6764 398.114 24.5487C404.859 27.5207 409.248 34.1546 409.248 41.5247V140.289C409.248 150.502 417.529 158.783 427.742 158.783H526.506C533.876 158.783 540.51 163.172 543.482 169.917C556.355 199.139 564.433 230.948 566.733 264.348C567.46 275.012 558.959 284.056 548.267 284.056Z" fill="#0A4266"/>
<path d="M0.856857 251.254V18.7519C0.856857 9.0908 8.68699 1.25146 18.3481 1.25146H250.851C260.963 1.25146 269.004 9.80848 268.314 19.8929C266.143 51.4894 258.497 81.577 246.324 109.217C243.508 115.593 237.233 119.752 230.268 119.752H136.84C127.179 119.752 119.349 127.583 119.349 137.244V230.672C119.349 237.646 115.199 243.921 108.813 246.728C81.1732 258.901 51.0856 266.547 19.4891 268.718C9.40468 269.408 0.847656 261.366 0.847656 251.254H0.856857Z" fill="#FFD154"/>
<path d="M250.776 201.982C250.776 229.263 228.666 251.374 201.385 251.374C187.749 251.374 175.401 245.844 166.457 236.909C157.523 227.966 151.993 215.618 151.993 201.982C151.993 188.346 157.523 175.998 166.457 167.055C175.401 158.12 187.749 152.591 201.385 152.591C215.021 152.591 227.369 158.12 236.312 167.055C245.246 175.998 250.776 188.346 250.776 201.982Z" fill="#FFD154"/>
<path d="M464.891 340.147H348.109C343.663 340.147 340.063 343.746 340.063 348.193V559.248C340.063 564.39 342.959 567.293 348.109 567.293H376.741C381.892 567.293 384.787 564.39 384.787 559.248V514.429C384.787 511.28 387.343 508.733 390.483 508.733H464.891C530.525 508.733 553.373 480.742 553.373 428.621V421.548C553.373 367.813 530.525 340.147 464.891 340.147ZM508.649 428.304C508.649 459.191 494.496 466.264 461.355 466.264H431.006C406.504 466.351 392.461 473.416 384.787 486.849V390.749C384.787 386.437 388.284 382.94 392.596 382.94H461.355C495.137 382.94 508.649 389.048 508.649 421.548V428.304Z" fill="#0A4266"/>
<path d="M829.407 340.147H800.45C796.004 340.147 792.405 343.747 792.405 348.193V490.719C792.405 518.385 782.753 524.501 761.202 524.501H688.811C667.253 524.501 657.284 518.385 657.284 490.719V348.193C657.284 343.747 653.684 340.147 649.238 340.147H620.607C616.16 340.147 612.561 343.747 612.561 348.193V489.113C612.561 537.048 635.401 567.294 688.811 567.294H761.202C814.288 567.294 837.453 537.048 837.453 489.113V348.193C837.453 343.747 833.853 340.147 829.407 340.147Z" fill="#0A4266"/>
<path d="M1154.35 340.147H1119.92C1115.74 340.147 1112.52 342.078 1110.26 345.622L1035.73 467.562C1033.03 471.976 1026.62 471.984 1023.92 467.57L949.075 345.622C946.828 342.078 943.608 340.147 939.423 340.147H904.676C899.533 340.147 896.638 343.043 896.638 348.193V559.248C896.638 563.694 900.237 567.294 904.684 567.294H932.991C938.141 567.294 941.037 564.39 941.037 559.248V421.018C941.037 418.479 944.36 417.529 945.705 419.681L1010.85 523.86C1013.1 527.396 1016.32 529.327 1020.5 529.327H1038.52C1042.7 529.327 1045.92 527.396 1048.17 523.86L1113.31 419.389C1114.65 417.229 1117.99 418.186 1117.99 420.726V559.248C1117.99 564.39 1120.88 567.294 1126.03 567.294H1154.35C1158.78 567.294 1162.38 563.694 1162.38 559.256V348.193C1162.38 343.043 1159.49 340.147 1154.35 340.147Z" fill="#0A4266"/>
<path d="M1460.69 557.958L1358.71 345.938C1356.78 342.078 1353.88 340.147 1349.38 340.147H1315.27C1310.77 340.147 1307.88 342.078 1305.95 345.938L1203.63 557.958C1201.06 563.433 1203.63 567.294 1209.75 567.294H1242.24C1246.74 567.294 1249.96 565.039 1251.89 561.178C1261.32 540.965 1281.59 528.037 1303.9 528.037H1391.22C1394.93 528.037 1398.3 530.205 1399.84 533.583L1412.43 561.178C1414.36 565.364 1417.58 567.294 1422.08 567.294H1454.57C1460.69 567.294 1463.26 563.433 1460.69 557.958H1460.69ZM1287.69 483.567L1327.35 398.21C1329.43 393.716 1335.83 393.732 1337.88 398.233L1377.01 483.59C1378.68 487.222 1376.03 491.36 1372.03 491.36H1292.65C1288.64 491.36 1285.98 487.198 1287.68 483.567H1287.69Z" fill="#0A4266"/>
</svg>
